<svg height="511pt" viewBox="-41 0 511 511.99261" width="511pt" xmlns="http://www.w3.org/2000/svg"><path d="m259.4375 466.714844v1.148437c-.007812 4.734375-.75 9.441407-2.207031 13.945313-6.03125 18.03125-22.917969 30.183594-41.929688 30.183594s-35.894531-12.152344-41.929687-30.183594c-1.457032-4.503906-2.199219-9.210938-2.207032-13.945313v-1.148437l44.136719-25.335938zm0 0" fill="#ff5364"/><path d="m215.300781 485.515625c-4.875 0-8.828125-3.949219-8.828125-8.824219v-53.851562c0-4.875 3.953125-8.824219 8.828125-8.824219s8.828125 3.949219 8.828125 8.824219v53.851562c0 4.875-3.953125 8.824219-8.828125 8.824219zm0 0" fill="#cc4b4c"/><path d="m383.023438 247.171875s105.933593-123.585937 0-247.171875c-57.460938 2.640625-106.582032 42.222656-121.378907 97.808594h-92.6875c-14.796875-55.585938-63.917969-95.167969-121.378906-97.808594-105.933594 123.585938 0 247.171875 0 247.171875zm0 0" fill="#2c3e50"/><path d="m365.105469 203.035156s60.203125-76.535156 0-158.898437c0 0-53.761719 0-69.738281 67.796875h-160.132813c-15.976563-67.796875-69.738281-67.796875-69.738281-67.796875-60.203125 82.363281 0 158.898437 0 158.898437zm0 0" fill="#fdd7ad"/><path d="m338.269531 400.3125c1.597657-.050781 3.1875-.199219 4.765625-.441406 65.941406-8.121094 72.738282-80.152344 62.765625-110.167969-11.917969-35.664063-23.835937-23.746094-47.667969-107.078125-18.628906-65.324219-95.691406-86.773438-128.265624-92.953125-9.621094-1.855469-19.511719-1.855469-29.132813 0-32.574219 6.179687-109.636719 27.628906-128.265625 92.953125-23.832031 83.332031-35.75 71.414062-47.667969 107.078125-9.972656 30.015625-3.175781 102.046875 62.765625 110.167969 1.578125.242187 3.167969.390625 4.765625.441406" fill="#2c2f38"/><path d="m338.886719 407.332031c6.417969-11.164062 12.125-22.722656 17.082031-34.605469 8.15625-19.421874 23.550781-52.691406 4.597656-70.621093-9.363281-8.828125-22.171875-12.121094-31.265625-21.757813-10.175781-10.804687-16.589843-24.609375-18.28125-39.355468-1.828125-16.03125 5.046875-32.113282.308594-47.878907-5.328125-15.527343-17.097656-28-32.292969-34.214843-8.148437-3.894532-31.257812-12.871094-37.25-.882813-5.996094 11.984375-7.945312 48.816406-8.546875 70.917969-.277343 9.695312-8.238281 17.398437-17.9375 17.355468-9.6875.027344-17.632812-7.671874-17.910156-17.355468-.609375-22.066406-2.515625-58.859375-8.546875-70.917969-6.027344-12.058594-29.128906-3.011719-37.25.882813-15.207031 6.226562-26.980469 18.71875-32.292969 34.265624-4.742187 15.765626 2.136719 31.851563.308594 47.882813-1.695313 14.738281-8.109375 28.535156-18.28125 39.335937-9.09375 9.640626-21.902344 12.90625-31.265625 21.757813-18.953125 17.914063-3.53125 51.199219 4.597656 70.621094 4.949219 11.871093 10.648438 23.417969 17.054688 34.570312" fill="#bdc3c7"/><path d="m263.382812 343.394531c13.722657 3.109375 26.949219 8.089844 39.3125 14.800781 10.226563 5.519532 19.234376 13.046876 26.480469 22.132813 6.109375 7.691406 9.523438 17.179687 9.710938 27.003906-.214844 9.804688-3.605469 19.273438-9.664063 26.984375-7.253906 9.050782-16.261718 16.542969-26.484375 22.027344-1.605469.898438-3.253906 1.78125-4.945312 2.648438-18.246094 9.597656-39.824219 10.570312-58.859375 2.644531-10.726563-4.039063-19.285156-12.363281-23.632813-22.96875-4.34375 10.59375-12.894531 18.90625-23.605469 22.953125-19.035156 7.921875-40.613281 6.949218-58.863281-2.648438-1.679687-.847656-3.328125-1.730468-4.941406-2.648437-10.222656-5.480469-19.230469-12.972657-26.484375-22.023438-6.0625-7.703125-9.464844-17.167969-9.691406-26.96875.175781-9.816406 3.570312-19.304687 9.667968-27.003906 7.246094-9.085937 16.253907-16.613281 26.480469-22.132813 12.378907-6.714843 25.621094-11.695312 39.355469-14.800781zm0 0" fill="#bdc3c7"/><g fill="#2c2f38"><path d="m336.238281 375.023438c-7.996093-10.082032-17.957031-18.433594-29.28125-24.542969-13.074219-7.117188-27.066406-12.398438-41.585937-15.695313-3.101563-.8125-6.398438.121094-8.613282 2.4375-2.21875 2.316406-3.003906 5.652344-2.054687 8.714844.945313 3.058594 3.480469 5.367188 6.617187 6.027344 12.898438 2.917968 25.339844 7.59375 36.96875 13.894531 9.195313 4.914063 17.300782 11.632813 23.835938 19.757813 10.554688 12.53125 10.585938 30.832031.078125 43.402343-6.546875 8.089844-14.652344 14.78125-23.835937 19.679688-1.492188.832031-3.023438 1.644531-4.589844 2.425781-15.886719 8.386719-34.675782 9.28125-51.289063 2.445312-8.078125-3.007812-14.667969-9.050781-18.359375-16.84375v-13.886718c0-4.875-3.953125-8.824219-8.828125-8.824219s-8.828125 3.949219-8.828125 8.824219v13.914062c-3.714844 7.773438-10.3125 13.789063-18.394531 16.773438-16.609375 6.832031-35.398437 5.9375-51.28125-2.445313-1.566406-.785156-3.09375-1.59375-4.582031-2.429687-9.132813-4.875-17.203125-11.53125-23.726563-19.570313-4.9375-6.195312-7.726562-13.832031-7.945312-21.75.175781-7.902343 2.949219-15.527343 7.890625-21.699219 6.507812-8.105468 14.585937-14.8125 23.746094-19.71875 11.660156-6.332031 24.136718-11.023437 37.078124-13.949218 3.136719-.660156 5.667969-2.96875 6.617188-6.027344.945312-3.0625.160156-6.398438-2.054688-8.714844-2.21875-2.316406-5.515624-3.25-8.617187-2.4375-14.5625 3.300782-28.597656 8.597656-41.710937 15.742188-11.292969 6.101562-21.226563 14.441406-29.199219 24.503906-7.253907 9.21875-11.265625 20.570312-11.40625 32.300781.195312 11.746094 4.222656 23.109375 11.476562 32.351563 8 10.007812 17.941407 18.300781 29.21875 24.382812 1.722657.960938 3.53125 1.898438 5.296875 2.796875 11.472656 5.792969 24.136719 8.835938 36.988282 8.890625 10.132812.058594 20.160156-2.027344 29.429687-6.117187 7.582031-3.210938 14.398437-7.988281 20.003906-14.019531 5.605469 6.027343 12.417969 10.800781 19.996094 14.011718 21.460937 8.984375 45.804687 7.96875 66.445313-2.773437 1.765624-.882813 3.53125-1.835938 5.296874-2.808594 11.304688-6.089844 21.261719-14.402344 29.277344-24.433594 15.21875-18.824219 15.21875-45.722656 0-64.546875zm0 0"/><path d="m259.4375 387.53125c0 12.976562-19.773438 35.308594-44.136719 35.308594s-44.136719-22.332032-44.136719-35.308594c.007813-1.542969.308594-3.070312.882813-4.503906 4.148437-9.53125 21.890625-13.152344 43.253906-13.152344 24.363281 0 44.136719 4.652344 44.136719 17.65625zm0 0"/><path d="m135.851562 406.070312c-1.152343-.015624-2.292968-.253906-3.351562-.707031-1.070312-.449219-2.054688-1.078125-2.914062-1.855469-1.613282-1.691406-2.527344-3.929687-2.5625-6.265624.015624-1.15625.253906-2.292969.707031-3.355469.449219-1.070313 1.074219-2.054688 1.855469-2.914063.84375-.796875 1.832031-1.425781 2.914062-1.851562 1.609375-.703125 3.398438-.890625 5.117188-.53125.554687.097656 1.089843.273437 1.589843.53125.5625.191406 1.097657.460937 1.589844.792968.460937.328126.902344.679688 1.324219 1.058594.777344.859375 1.402344 1.84375 1.851562 2.914063.945313 2.136719.945313 4.570312 0 6.710937-.449218 1.066406-1.074218 2.050782-1.851562 2.910156l-1.324219 1.058594c-.492187.335938-1.027344.601563-1.589844.796875-.5.253907-1.035156.429688-1.589843.527344-.582032.101563-1.171876.164063-1.765626.179687zm0 0"/><path d="m144.679688 441.378906c-1.152344-.011718-2.292969-.253906-3.355469-.707031-1.066407-.449219-2.050781-1.074219-2.910157-1.851563-1.613281-1.691406-2.527343-3.929687-2.5625-6.269531.015626-1.152343.253907-2.292969.707032-3.355469.449218-1.066406 1.074218-2.054687 1.855468-2.910156.84375-.800781 1.832032-1.429687 2.910157-1.855468 1.613281-.703126 3.402343-.886719 5.121093-.527344.554688.09375 1.089844.273437 1.589844.527344.5625.195312 1.097656.460937 1.589844.796874.460938.324219.902344.679688 1.324219 1.058594.777343.859375 1.402343 1.84375 1.851562 2.910156.941407 2.140626.941407 4.574219 0 6.710938-.449219 1.070312-1.074219 2.054688-1.851562 2.914062l-1.324219 1.058594c-.492188.332032-1.027344.601563-1.589844.792969-.5.253906-1.035156.433594-1.589844.53125-.582031.101563-1.171874.160156-1.765624.175781zm0 0"/><path d="m294.75 406.070312c1.152344-.015624 2.292969-.253906 3.355469-.707031 1.066406-.449219 2.050781-1.078125 2.910156-1.855469 1.613281-1.691406 2.527344-3.929687 2.5625-6.265624-.015625-1.15625-.253906-2.292969-.707031-3.355469-.449219-1.070313-1.074219-2.054688-1.855469-2.914063-.84375-.796875-1.832031-1.425781-2.910156-1.851562-1.613281-.703125-3.402344-.890625-5.121094-.53125-.554687.097656-1.089844.273437-1.589844.53125-.5625.191406-1.097656.460937-1.589843.792968-.460938.328126-.902344.679688-1.324219 1.058594-.777344.859375-1.402344 1.84375-1.851563 2.914063-.941406 2.136719-.941406 4.570312 0 6.710937.449219 1.066406 1.074219 2.050782 1.851563 2.910156l1.324219 1.058594c.492187.335938 1.027343.601563 1.589843.796875.5.253907 1.035157.429688 1.589844.527344.582031.101563 1.171875.164063 1.765625.179687zm0 0"/><path d="m285.921875 441.378906c1.152344-.011718 2.292969-.253906 3.355469-.707031 1.066406-.449219 2.050781-1.074219 2.910156-1.851563 1.613281-1.691406 2.527344-3.929687 2.5625-6.269531-.015625-1.152343-.253906-2.292969-.707031-3.355469-.449219-1.066406-1.074219-2.054687-1.855469-2.910156-.839844-.800781-1.832031-1.429687-2.910156-1.855468-1.613282-.703126-3.402344-.886719-5.121094-.527344-.554688.09375-1.089844.273437-1.589844.527344-.5625.195312-1.097656.460937-1.589844.796874-.460937.324219-.902343.679688-1.324218 1.058594-.777344.859375-1.402344 1.84375-1.851563 2.910156-.941406 2.140626-.941406 4.574219 0 6.710938.449219 1.070312 1.074219 2.054688 1.851563 2.914062l1.324218 1.058594c.492188.332032 1.027344.601563 1.589844.792969.5.253906 1.035156.433594 1.589844.53125.582031.101563 1.171875.160156 1.765625.175781zm0 0"/></g><path d="m224.128906 388.414062c0-4.875-8.035156-8.828124-17.945312-8.828124-9.914063 0-17.949219 3.953124-17.949219 8.828124s8.035156 8.828126 17.949219 8.828126c9.910156 0 17.945312-3.953126 17.945312-8.828126zm0 0" fill="#464f5d"/><path d="m135.851562 406.070312c-1.152343-.015624-2.292968-.253906-3.351562-.707031-1.070312-.449219-2.054688-1.078125-2.914062-1.855469-1.613282-1.691406-2.527344-3.929687-2.5625-6.265624.015624-1.15625.253906-2.292969.707031-3.355469.449219-1.070313 1.074219-2.054688 1.855469-2.914063.84375-.796875 1.832031-1.425781 2.914062-1.851562 1.609375-.703125 3.398438-.890625 5.117188-.53125.554687.097656 1.089843.273437 1.589843.53125.5625.191406 1.097657.460937 1.589844.792968.460937.328126.902344.679688 1.324219 1.058594.777344.859375 1.402344 1.84375 1.851562 2.914063.945313 2.136719.945313 4.570312 0 6.710937-.449218 1.066406-1.074218 2.050782-1.851562 2.910156l-1.324219 1.058594c-.492187.335938-1.027344.601563-1.589844.796875-.5.253907-1.035156.429688-1.589843.527344-.582032.101563-1.171876.164063-1.765626.179687zm0 0" fill="#464f5d"/><path d="m144.679688 441.378906c-1.152344-.011718-2.292969-.253906-3.355469-.707031-1.066407-.449219-2.050781-1.074219-2.910157-1.851563-1.613281-1.691406-2.527343-3.929687-2.5625-6.269531.015626-1.152343.253907-2.292969.707032-3.355469.449218-1.066406 1.074218-2.054687 1.855468-2.910156.84375-.800781 1.832032-1.429687 2.910157-1.855468 1.613281-.703126 3.402343-.886719 5.121093-.527344.554688.09375 1.089844.273437 1.589844.527344.5625.195312 1.097656.460937 1.589844.796874.460938.324219.902344.679688 1.324219 1.058594.777343.859375 1.402343 1.84375 1.851562 2.910156.941407 2.140626.941407 4.574219 0 6.710938-.449219 1.070312-1.074219 2.054688-1.851562 2.914062l-1.324219 1.058594c-.492188.332032-1.027344.601563-1.589844.792969-.5.253906-1.035156.433594-1.589844.53125-.582031.101563-1.171874.160156-1.765624.175781zm0 0" fill="#464f5d"/><path d="m294.75 406.070312c1.152344-.015624 2.292969-.253906 3.355469-.707031 1.066406-.449219 2.050781-1.078125 2.910156-1.855469 1.613281-1.691406 2.527344-3.929687 2.5625-6.265624-.015625-1.15625-.253906-2.292969-.707031-3.355469-.449219-1.070313-1.074219-2.054688-1.855469-2.914063-.84375-.796875-1.832031-1.425781-2.910156-1.851562-1.613281-.703125-3.402344-.890625-5.121094-.53125-.554687.097656-1.089844.273437-1.589844.53125-.5625.191406-1.097656.460937-1.589843.792968-.460938.328126-.902344.679688-1.324219 1.058594-.777344.859375-1.402344 1.84375-1.851563 2.914063-.941406 2.136719-.941406 4.570312 0 6.710937.449219 1.066406 1.074219 2.050782 1.851563 2.910156l1.324219 1.058594c.492187.335938 1.027343.601563 1.589843.796875.5.253907 1.035157.429688 1.589844.527344.582031.101563 1.171875.164063 1.765625.179687zm0 0" fill="#464f5d"/><path d="m285.921875 441.378906c1.152344-.011718 2.292969-.253906 3.355469-.707031 1.066406-.449219 2.050781-1.074219 2.910156-1.851563 1.613281-1.691406 2.527344-3.929687 2.5625-6.269531-.015625-1.152343-.253906-2.292969-.707031-3.355469-.449219-1.066406-1.074219-2.054687-1.855469-2.910156-.839844-.800781-1.832031-1.429687-2.910156-1.855468-1.613282-.703126-3.402344-.886719-5.121094-.527344-.554688.09375-1.089844.273437-1.589844.527344-.5625.195312-1.097656.460937-1.589844.796874-.460937.324219-.902343.679688-1.324218 1.058594-.777344.859375-1.402344 1.84375-1.851563 2.910156-.941406 2.140626-.941406 4.574219 0 6.710938.449219 1.070312 1.074219 2.054688 1.851563 2.914062l1.324218 1.058594c.492188.332032 1.027344.601563 1.589844.792969.5.253906 1.035156.433594 1.589844.53125.582031.101563 1.171875.160156 1.765625.175781zm0 0" fill="#464f5d"/><path d="m149.09375 237.460938c10.222656-21.050782 30.667969-21.050782 40.890625-10.519532s10.222656 31.574219 0 52.628906c-7.605469 13.792969-18.203125 25.707032-31.011719 34.867188-5.808594 4.527344-13.949218 4.527344-19.757812 0-12.808594-9.160156-23.40625-21.074219-31.011719-34.867188-10.222656-21.054687-10.222656-42.109374 0-52.628906 10.222656-10.523437 30.667969-10.570312 40.890625 10.519532zm0 0" fill="#ff5364" fill-rule="evenodd"/><path d="m130.902344 234.230469c-2.199219-4.351563-8.832032-5.433594-14.816406-2.410157-5.984376 3.019532-9.054688 8.996094-6.855469 13.351563 2.195312 4.351563 8.828125 5.429687 14.8125 2.410156 5.984375-3.023437 9.054687-9 6.859375-13.351562zm0 0" fill="#fb7b76"/><path d="m179.460938 234.226562c-2.199219-4.351562-8.828126-5.433593-14.8125-2.410156-5.984376 3.019532-9.054688 8.996094-6.859376 13.347656 2.195313 4.351563 8.828126 5.433594 14.8125 2.410157 5.984376-3.019531 9.054688-8.996094 6.859376-13.347657zm0 0" fill="#fb7b76"/><path d="m281.507812 237.460938c10.222657-21.050782 30.667969-21.050782 40.890626-10.519532 10.222656 10.53125 10.222656 31.574219 0 52.628906-7.605469 13.792969-18.203126 25.707032-31.011719 34.867188-5.808594 4.527344-13.949219 4.527344-19.757813 0-12.808594-9.160156-23.40625-21.074219-31.011718-34.867188-10.222657-21.054687-10.222657-42.109374 0-52.628906 10.222656-10.523437 30.667968-10.570312 40.890624 10.519532zm0 0" fill="#ff5364" fill-rule="evenodd"/><path d="m263.320312 234.222656c-2.199218-4.351562-8.828124-5.429687-14.8125-2.410156-5.984374 3.023438-9.054687 9-6.859374 13.351562 2.195312 4.351563 8.828124 5.429688 14.8125 2.410157 5.984374-3.019531 9.054687-8.996094 6.859374-13.351563zm0 0" fill="#fb7b76"/><path d="m311.871094 234.226562c-2.199219-4.351562-8.832032-5.429687-14.816406-2.410156-5.980469 3.023438-9.050782 9-6.855469 13.351563 2.195312 4.351562 8.828125 5.433593 14.8125 2.410156 5.984375-3.019531 9.054687-8.996094 6.859375-13.351563zm0 0" fill="#fb7b76"/></svg>